<svg xmlns="http://www.w3.org/2000/svg" viewBox="0 0 72 28" fill="#43302E">
  <path d="M2 16c0 2.2 1.1 3.5 2.7 3.5 1.3 0 2.2-.8 3.3-2.7l1.2-2-1.7-3C6.5 10 5.8 9.2 4.7 9.2 3.1 9.2 2 11 2 16z"/>
  <path d="M9.8 14.8l-1.7-2.9C9.5 9.5 10.7 8.5 12.2 8.5c1.7 0 2.9 1.1 4.1 3.6l2 4 1.9-3.5c1.1-2.2 2-2.9 3.2-2.9 1.6 0 2.6 1.2 2.6 4 0 3.1-1.1 4.8-2.7 4.8-1 0-1.7-.6-2.7-2.2l-1.1-2-2.1 4c-1.1 2-2 2.7-3.5 2.7-1.8 0-2.9-1.2-4.1-3.2z"/>
  <text x="30" y="18" font-family="system-ui,sans-serif" font-size="13" font-weight="600" fill="#43302E">Meta</text>
</svg>
